<svg width="319" height="371" viewBox="0 0 319 371" fill="none" xmlns="http://www.w3.org/2000/svg">
<path fill-rule="evenodd" clip-rule="evenodd" d="M156.982 0.680452C158.538 -0.226816 160.462 -0.226818 162.018 0.680451L316.518 90.7517C318.055 91.6476 319 93.2924 319 95.0713V259.151V275.294V275.298C319 277.077 318.055 278.722 316.518 279.618L162.018 369.689C160.462 370.596 158.538 370.596 156.982 369.689L2.48176 279.618C0.945037 278.722 0 277.077 0 275.298V275.294V225.411V95.0713C0 93.2924 0.945045 91.6476 2.48177 90.7517L156.982 0.680452ZM294.275 260.763C284.638 257.563 278.421 245.605 272.588 234.387C266.881 223.411 261.542 213.143 253.73 212.486C241.57 210.988 239.504 223.64 237.005 238.944C234.711 252.989 232.052 269.266 220.893 278.889C197.574 298.995 179.965 293.251 156.646 278.889C143.677 270.901 137.773 259.255 131.076 246.044C125.731 235.5 119.881 223.96 109.531 212.486C86.2122 186.634 60.0375 157.845 36.7182 172.207C32.6239 174.728 28.6177 178.58 24.7317 183.326V109.487C24.7317 107.708 25.6768 106.063 27.2135 105.167L156.985 29.5125C157.476 29.226 158.004 29.03 158.546 28.9245L158.546 187.117L294.079 108.103C294.207 108.547 294.275 109.012 294.275 109.487V260.763Z" fill="url(#paint0_linear_206_688)"/>
<defs>
<linearGradient id="paint0_linear_206_688" x1="158.182" y1="337.167" x2="158.182" y2="33.1858" gradientUnits="userSpaceOnUse">
<stop stop-color="#2F9BFF"/>
<stop offset="1" stop-color="#FD7C8E"/>
</linearGradient>
</defs>
</svg>
