<svg width="854" height="995" viewBox="0 0 854 995" fill="none" xmlns="http://www.w3.org/2000/svg">
<path fill-rule="evenodd" clip-rule="evenodd" d="M424.482 0.680446C426.038 -0.226822 427.962 -0.226812 429.518 0.680457L851.518 246.7C853.055 247.596 854 249.241 854 251.02L854 695.099V743.133C854 743.154 854 743.175 854 743.196C853.981 744.955 853.04 746.576 851.518 747.463L429.518 993.483C427.962 994.391 426.038 994.39 424.482 993.483L2.48177 747.463C0.945048 746.568 0 744.923 0 743.144V251.02C0 249.241 0.945045 247.596 2.48177 246.7L424.482 0.680446ZM787.807 699.413C762.009 690.848 745.364 658.834 729.75 628.803C714.471 599.417 700.18 571.93 679.266 570.17C646.712 566.16 641.18 600.032 634.489 641.002C628.348 678.601 621.231 722.178 591.356 747.938C528.928 801.766 481.788 786.387 419.36 747.938C384.639 726.554 368.835 695.377 350.906 660.008C336.598 631.782 320.937 600.887 293.229 570.17C230.8 500.962 160.728 423.889 98.2991 462.338C87.3383 469.089 76.6132 479.4 66.2099 492.106V289.612C66.2099 287.833 67.155 286.188 68.6917 285.292L424.445 77.8933L424.445 502.254L787.807 290.419V699.413Z" fill="url(#paint0_linear_215_2)"/>
<defs>
<linearGradient id="paint0_linear_215_2" x1="423.471" y1="905.041" x2="423.471" y2="89.0788" gradientUnits="userSpaceOnUse">
<stop stop-color="#389FFF"/>
<stop offset="1" stop-color="#F87171"/>
</linearGradient>
</defs>
</svg>
